<svg width="512" height="512" viewBox="0 0 512 512" fill="none" xmlns="http://www.w3.org/2000/svg">
  <path d="M120 150C120 138.954 128.954 130 140 130H372C383.046 130 392 138.954 392 150V180C392 191.046 383.046 200 372 200H140C128.954 200 120 191.046 120 180V150ZM120 241C120 229.954 128.954 221 140 221H320C331.046 221 340 229.954 340 241V271C340 282.046 331.046 291 320 291H140C128.954 291 120 282.046 120 271V241ZM120 332C120 320.954 128.954 312 140 312H372C383.046 312 392 320.954 392 332V362C392 373.046 383.046 382 372 382H140C128.954 382 120 373.046 120 362V332Z" fill="white"/>
</svg>